<svg xmlns="http://www.w3.org/2000/svg" viewBox="0 0 24 24" fill="currentColor">
    <path fillRule="evenodd" clipRule="evenodd" d="M12 0.296875C5.37258 0.296875 0 5.66946 0 12.2969C0 17.6972 3.438 22.1986 8.20706 23.8974C8.80706 24.0117 9.02545 23.6406 9.02545 23.3206C9.02545 23.0311 9.01258 22.2518 9.00632 21.3223C5.67103 22.0329 4.96894 19.6882 4.96894 19.6882C4.42258 18.3223 3.63548 17.9695 3.63548 17.9695C2.54453 17.2431 3.71848 17.2599 3.71848 17.2599C4.92484 17.3431 5.55197 18.4903 5.55197 18.4903C6.63343 20.2833 8.39981 19.7502 9.05158 19.4467C9.15633 18.676 9.4617 18.1554 9.8071 17.8552C7.1479 17.5549 4.35785 16.5135 4.35785 11.8393C4.35785 10.498 4.85955 9.38114 5.67102 8.53549C5.54798 8.23347 5.09867 6.95371 5.78545 5.25371C5.78545 5.25371 6.82104 4.92733 8.99861 6.57055C9.98256 6.29693 11.0179 6.16015 12.0031 6.15524C12.9877 6.16015 14.0225 6.29693 15.0064 6.57055C17.1839 4.92733 18.2195 5.25371 18.2195 5.25371C18.9063 6.95371 18.4566 8.23347 18.3336 8.53549C19.1451 9.38114 19.6468 10.498 19.6468 11.8393C19.6468 16.5234 16.8526 17.5498 14.1864 17.844C14.616 18.2118 14.9954 18.9405 14.9954 20.0642C14.9954 21.6195 14.9807 22.9202 14.9807 23.3206C14.9807 23.6406 15.1991 24.0164 15.8051 23.8974C20.5729 22.1986 24 17.6958 24 12.2969C24 5.66946 18.6274 0.296875 12 0.296875Z" />
</svg>
